<svg width="239" height="239" viewBox="0 0 239 239" fill="none" xmlns="http://www.w3.org/2000/svg">
<path d="M131.221 6.33235L131.386 6.41379L131.564 6.36849L144.23 3.15658L154.493 11.2422L154.638 11.3562L154.822 11.349L167.878 10.8405L176.237 20.8834L176.355 21.025L176.536 21.0563L189.413 23.2734L195.5 34.8346L195.586 34.9977L195.757 35.066L207.892 39.9119L211.443 52.4861L211.493 52.6635L211.646 52.7659L222.507 60.0287L223.366 73.0665L223.378 73.2503L223.507 73.3824L232.621 82.7447L230.751 95.6762L230.724 95.8586L230.823 96.0144L237.791 107.067L233.273 119.327L233.209 119.5L233.273 119.673L237.791 131.933L230.823 142.986L230.724 143.141L230.751 143.324L232.621 156.255L223.507 165.618L223.378 165.75L223.366 165.934L222.507 178.971L211.646 186.234L211.493 186.337L211.443 186.514L207.892 199.088L195.757 203.934L195.586 204.002L195.5 204.165L189.413 215.727L176.536 217.944L176.355 217.975L176.237 218.117L167.878 228.159L154.822 227.651L154.638 227.644L154.493 227.758L144.23 235.843L131.564 232.632L131.386 232.586L131.221 232.668L119.5 238.443L107.779 232.668L107.614 232.586L107.436 232.632L94.7704 235.843L84.5067 227.758L84.3619 227.644L84.1778 227.651L71.1217 228.159L62.7633 218.117L62.6454 217.975L62.4638 217.944L49.5873 215.727L43.4996 204.165L43.4137 204.002L43.2426 203.934L31.1084 199.088L27.5575 186.514L27.5074 186.337L27.3542 186.234L16.4927 178.971L15.6337 165.934L15.6215 165.75L15.493 165.618L6.37886 156.255L8.24931 143.324L8.27569 143.141L8.17742 142.986L1.20898 131.933L5.72716 119.673L5.79088 119.5L5.72716 119.327L1.20898 107.067L8.17742 96.0144L8.27569 95.8586L8.24931 95.6762L6.37886 82.7447L15.493 73.3824L15.6215 73.2503L15.6337 73.0665L16.4927 60.0287L27.3542 52.7659L27.5074 52.6635L27.5575 52.4861L31.1084 39.9119L43.2426 35.066L43.4137 34.9977L43.4996 34.8346L49.5873 23.2734L62.4638 21.0563L62.6454 21.025L62.7633 20.8834L71.1217 10.8405L84.1778 11.349L84.3619 11.3562L84.5067 11.2422L94.7704 3.15658L107.436 6.36849L107.614 6.41379L107.779 6.33235L119.5 0.5574L131.221 6.33235Z" stroke="white"/>
</svg>
